<?xml version="1.0" encoding="utf-8"?><svg viewBox="0 0 16 16" xmlns="http://www.w3.org/2000/svg" xmlns:xlink="http://www.w3.org/1999/xlink"><style>:root>svg{display:none}:root>svg:target{display:block}</style><svg viewBox="0 0 16 16" id="emoji-heart-eyes" xmlns="http://www.w3.org/2000/svg"><path d="M8 15A7 7 0 1 1 8 1a7 7 0 0 1 0 14Zm0 1A8 8 0 1 0 8 0a8 8 0 0 0 0 16Z"/><path d="M11.315 10.014a.5.5 0 0 1 .548.736A4.498 4.498 0 0 1 7.965 13a4.498 4.498 0 0 1-3.898-2.25.5.5 0 0 1 .548-.736h.005l.017.005.067.015.252.055c.215.046.515.108.857.169.693.124 1.522.242 2.152.242.63 0 1.46-.118 2.152-.242a26.58 26.58 0 0 0 1.109-.224l.067-.015.017-.004.005-.002ZM4.756 4.566c.763-1.424 4.02-.12.952 3.434-4.496-1.596-2.35-4.298-.952-3.434Zm6.488 0c1.398-.864 3.544 1.838-.952 3.434-3.067-3.554.19-4.858.952-3.434Z"/></svg><svg viewBox="0 0 15 16" id="icon-cart" xmlns="http://www.w3.org/2000/svg"><path d="M14.383 10.388a2.397 2.397 0 0 0-1.518-2.222l1.494-5.593a.8.8 0 0 0-.144-.695.8.8 0 0 0-.631-.28H2.637L2.373.591A.8.8 0 0 0 1.598 0H0v1.598h.983l1.982 7.4a.8.8 0 0 0 .799.59h8.222a.8.8 0 0 1 0 1.599H1.598a.8.8 0 1 0 0 1.598h.943a2.397 2.397 0 1 0 4.507 0h1.885a2.397 2.397 0 1 0 4.331-.376 2.397 2.397 0 0 0 1.12-2.021ZM11.26 7.99H4.395L3.068 3.196h9.477L11.26 7.991Zm-6.465 6.392a.8.8 0 1 1 0-1.598.8.8 0 0 1 0 1.598Zm6.393 0a.8.8 0 1 1 0-1.598.8.8 0 0 1 0 1.598Z"/></svg></svg>